2.ufo
<glyph name="two" format="2">
	<advance width="528"/>
	<unicode hex="0032"/>
	<outline>
		<contour>
			<point x="467" y="126" type="move"/>
			<point x="467" y="30" type="line"/>
			<point x="439" y="30" type="line"/>
			<point x="439" y="126" type="line"/>
			<point x="411" y="126" type="line"/>
			<point x="411" y="-18" type="line"/>
			<point x="143" y="-18" type="line"/>
			<point x="143" y="96" type="line"/>
			<point x="115" y="96" type="line"/>
			<point x="115" y="34"/>
			<point x="115" y="40"/>
			<point x="115" y="23" type="curve"/>
			<point x="87" y="23" type="line"/>
			<point x="87" y="95" type="line"/>
			<point x="59" y="95" type="line"/>
			<point x="59" y="20" type="line"/>
		</contour>
		<contour>
			<point x="143" y="96" type="move"/>
			<point x="330" y="176"/>
			<point x="403" y="259"/>
			<point x="403" y="393" type="curve" smooth="yes"/>
			<point x="403" y="463"/>
			<point x="363" y="518"/>
			<point x="275" y="518" type="curve" smooth="yes"/>
			<point x="206" y="518"/>
			<point x="143" y="484"/>
			<point x="143" y="376" type="curve" smooth="yes"/>
			<point x="143" y="344" type="line"/>
			<point x="115" y="344" type="line"/>
			<point x="115" y="443" type="line"/>
			<point x="87" y="443" type="line"/>
			<point x="87" y="344" type="line"/>
			<point x="59" y="344" type="line"/>
			<point x="59" y="443" type="line"/>
		</contour>
		<contour>
			<point x="469" y="395" type="move"/>
			<point x="459" y="395" type="line"/>
			<point x="459" y="284" type="line"/>
			<point x="441" y="284" type="line"/>
			<point x="441" y="395" type="line"/>
			<point x="413" y="395" type="line"/>
			<point x="413" y="283" type="line"/>
			<point x="390" y="283" type="line"/>
		</contour>
	</outline>
</glyph>
<glyph name="b" format="2">
	<advance width="543"/>
	<unicode hex="0062"/>
	<guideline x="534" y="389" angle="0"/>
	<outline>
		<contour>
			<point x="151" y="111" type="move"/>
			<point x="123" y="111" type="line"/>
			<point x="123" y="760" type="line"/>
			<point x="95" y="760" type="line"/>
			<point x="95" y="112" type="line"/>
			<point x="67" y="112" type="line"/>
			<point x="67" y="760" type="line"/>
		</contour>
		<contour>
			<point x="423" y="389" type="move"/>
			<point x="451" y="389" type="line"/>
			<point x="451" y="110" type="line"/>
			<point x="479" y="110" type="line"/>
			<point x="479" y="388" type="line"/>
			<point x="507" y="388" type="line"/>
			<point x="507" y="107" type="line"/>
		</contour>
		<contour>
			<point x="151" y="367" type="move"/>
			<point x="151" y="456"/>
			<point x="190" y="514"/>
			<point x="287" y="512" type="curve" smooth="yes"/>
			<point x="384" y="514"/>
			<point x="423" y="456"/>
			<point x="423" y="367" type="curve" smooth="yes"/>
			<point x="423" y="133" type="line" smooth="yes"/>
			<point x="423" y="44"/>
			<point x="384" y="-14"/>
			<point x="287" y="-12" type="curve" smooth="yes"/>
			<point x="190" y="-14"/>
			<point x="151" y="44"/>
			<point x="151" y="133" type="curve" smooth="yes"/>
			<point x="151" y="367" type="line"/>
		</contour>
	</outline>
</glyph>
<glyph name="c" format="2">
	<advance width="529"/>
	<unicode hex="0063"/>
	<anchor x="276" y="518" name="top"/>
	<anchor x="258" y="-18" name="bottom"/>
	<outline>
		<contour>
			<point x="56" y="440" type="move"/>
			<point x="56" y="84" type="line"/>
			<point x="84" y="84" type="line"/>
			<point x="84" y="440" type="line"/>
			<point x="112" y="440" type="line"/>
			<point x="112" y="147" type="line" smooth="yes"/>
			<point x="112" y="50"/>
			<point x="163" y="-18"/>
			<point x="258" y="-18" type="curve" smooth="yes"/>
			<point x="362" y="-18"/>
			<point x="400" y="45"/>
			<point x="400" y="127" type="curve" smooth="yes"/>
			<point x="400" y="137" type="line"/>
			<point x="428" y="137" type="line"/>
			<point x="428" y="60"/>
			<point x="428" y="60"/>
			<point x="428" y="43" type="curve"/>
			<point x="456" y="43" type="line"/>
			<point x="456" y="136" type="line"/>
			<point x="484" y="136" type="line"/>
			<point x="484" y="40" type="line"/>
		</contour>
		<contour>
			<point x="140" y="137" type="move"/>
			<point x="140" y="196"/>
			<point x="140" y="306"/>
			<point x="140" y="353" type="curve" smooth="yes"/>
			<point x="140" y="478"/>
			<point x="212" y="518"/>
			<point x="276" y="518" type="curve" smooth="yes"/>
			<point x="346" y="518"/>
			<point x="400" y="484"/>
			<point x="400" y="376" type="curve" smooth="yes"/>
			<point x="400" y="344" type="line"/>
			<point x="428" y="344" type="line"/>
			<point x="428" y="443" type="line"/>
			<point x="456" y="443" type="line"/>
			<point x="456" y="344" type="line"/>
			<point x="484" y="344" type="line"/>
			<point x="484" y="443" type="line"/>
		</contour>
	</outline>
</glyph>
<glyph name="d" format="2">
	<advance width="543"/>
	<unicode hex="0064"/>
	<outline>
		<contour>
			<point x="392" y="111" type="move"/>
			<point x="420" y="111" type="line"/>
			<point x="420" y="760" type="line"/>
			<point x="448" y="760" type="line"/>
			<point x="448" y="112" type="line"/>
			<point x="476" y="112" type="line"/>
			<point x="476" y="760" type="line"/>
		</contour>
		<contour>
			<point x="121" y="389" type="move"/>
			<point x="92" y="389" type="line"/>
			<point x="92" y="110" type="line"/>
			<point x="64" y="110" type="line"/>
			<point x="64" y="388" type="line"/>
			<point x="36" y="388" type="line"/>
			<point x="36" y="107" type="line"/>
		</contour>
		<contour>
			<point x="121" y="378" type="move"/>
			<point x="121" y="467"/>
			<point x="160" y="514"/>
			<point x="257" y="512" type="curve" smooth="yes"/>
			<point x="354" y="514"/>
			<point x="393" y="456"/>
			<point x="393" y="367" type="curve" smooth="yes"/>
			<point x="393" y="133" type="line" smooth="yes"/>
			<point x="393" y="44"/>
			<point x="354" y="-14"/>
			<point x="257" y="-12" type="curve" smooth="yes"/>
			<point x="160" y="-14"/>
			<point x="121" y="44"/>
			<point x="121" y="133" type="curve" smooth="yes"/>
			<point x="121" y="376" type="line"/>
		</contour>
	</outline>
</glyph>
<glyph name="e" format="2">
	<advance width="516"/>
	<unicode hex="0065"/>
	<outline>
		<contour>
			<point x="471" y="27" type="move"/>
			<point x="471" y="106" type="line"/>
			<point x="443" y="106" type="line"/>
			<point x="443" y="27" type="line"/>
			<point x="415" y="27" type="line"/>
			<point x="415" y="106" type="line"/>
			<point x="387" y="106" type="line"/>
			<point x="387" y="21" type="line"/>
			<point x="369" y="11"/>
			<point x="324" y="-13"/>
			<point x="260" y="-13" type="curve" smooth="yes"/>
			<point x="190" y="-13"/>
			<point x="127" y="27"/>
			<point x="127" y="152" type="curve"/>
			<point x="127" y="348" type="line" smooth="yes"/>
			<point x="127" y="473"/>
			<point x="190" y="513"/>
			<point x="260" y="513" type="curve" smooth="yes"/>
			<point x="364" y="513"/>
			<point x="387" y="455"/>
			<point x="387" y="373" type="curve" smooth="yes"/>
			<point x="387" y="279" type="line"/>
			<point x="415" y="279" type="line"/>
			<point x="415" y="390" type="line"/>
			<point x="443" y="390" type="line"/>
			<point x="443" y="279" type="line"/>
			<point x="471" y="279" type="line"/>
			<point x="471" y="390" type="line"/>
		</contour>
		<contour>
			<point x="129" y="110" type="move"/>
			<point x="104" y="110" type="line"/>
			<point x="104" y="390" type="line"/>
			<point x="76" y="390" type="line"/>
			<point x="76" y="109" type="line"/>
			<point x="48" y="109" type="line"/>
			<point x="48" y="390" type="line" smooth="yes"/>
		</contour>
		<contour>
			<point x="387" y="279" type="move"/>
			<point x="157" y="279" type="line"/>
		</contour>
	</outline>
</glyph>
<glyph name="f" format="2">
	<advance width="522"/>
	<unicode hex="0066"/>
	<outline>
		<contour>
			<point x="72" y="700" type="move"/>
			<point x="72" y="0" type="line"/>
			<point x="100" y="0" type="line"/>
			<point x="100" y="700" type="line"/>
			<point x="128" y="700" type="line"/>
			<point x="128" y="0" type="line"/>
			<point x="156" y="0" type="line"/>
			<point x="156" y="699" type="line"/>
			<point x="185" y="734"/>
			<point x="221" y="780"/>
			<point x="294" y="780" type="curve" smooth="yes"/>
			<point x="376" y="780"/>
			<point x="415" y="720"/>
			<point x="415" y="631" type="curve" smooth="yes"/>
			<point x="415" y="568" type="line"/>
			<point x="443" y="568" type="line"/>
			<point x="443" y="624"/>
			<point x="443" y="683"/>
			<point x="443" y="700" type="curve"/>
			<point x="471" y="700" type="line"/>
			<point x="471" y="569" type="line"/>
			<point x="499" y="569" type="line"/>
			<point x="499" y="703" type="line"/>
		</contour>
		<contour>
			<point x="335" y="500" type="move"/>
			<point x="157" y="500" type="line"/>
		</contour>
	</outline>
</glyph>
<glyph name="h" format="2">
	<advance width="585"/>
	<unicode hex="0068"/>
	<outline>
		<contour>
			<point x="78" y="760" type="move"/>
			<point x="78" y="0" type="line"/>
			<point x="106" y="0" type="line"/>
			<point x="106" y="760" type="line"/>
			<point x="134" y="760" type="line"/>
			<point x="134" y="0" type="line"/>
			<point x="162" y="0" type="line"/>
			<point x="162" y="432" type="line"/>
			<point x="196" y="471"/>
			<point x="246" y="520"/>
			<point x="328" y="518" type="curve"/>
			<point x="411" y="520"/>
			<point x="450" y="462"/>
			<point x="450" y="373" type="curve" smooth="yes"/>
			<point x="450" y="0" type="line"/>
			<point x="478" y="0" type="line"/>
			<point x="478" y="146"/>
			<point x="478" y="425"/>
			<point x="478" y="442" type="curve"/>
			<point x="506" y="442" type="line"/>
			<point x="506" y="1" type="line"/>
			<point x="534" y="1" type="line"/>
			<point x="534" y="445" type="line"/>
		</contour>
	</outline>
</glyph>
<glyph name="i" format="2">
	<advance width="226"/>
	<unicode hex="0069"/>
	<outline>
		<contour>
			<point x="71" y="500" type="move"/>
			<point x="71" y="0" type="line"/>
			<point x="99" y="0" type="line"/>
			<point x="99" y="500" type="line"/>
			<point x="127" y="500" type="line"/>
			<point x="127" y="0" type="line"/>
			<point x="155" y="0" type="line"/>
			<point x="155" y="500" type="line"/>
		</contour>
		<contour>
			<point x="71" y="760" type="move"/>
			<point x="71" y="655" type="line"/>
			<point x="99" y="655" type="line"/>
			<point x="99" y="760" type="line"/>
			<point x="127" y="760" type="line"/>
			<point x="127" y="655" type="line"/>
			<point x="155" y="655" type="line"/>
			<point x="155" y="760" type="line"/>
		</contour>
	</outline>
</glyph>
<glyph name="j" format="2">
	<advance width="289"/>
	<unicode hex="006A"/>
	<outline>
		<contour>
			<point x="222" y="-138" type="move"/>
			<point x="222" y="500" type="line"/>
			<point x="194" y="500" type="line"/>
			<point x="194" y="-138" type="line"/>
			<point x="166" y="-138" type="line"/>
			<point x="166" y="500" type="line"/>
			<point x="138" y="500" type="line"/>
			<point x="138" y="-76" type="line"/>
			<point x="138" y="-181"/>
			<point x="114" y="-218"/>
			<point x="6" y="-218" type="curve"/>
		</contour>
		<contour>
			<point x="137" y="760" type="move"/>
			<point x="137" y="655" type="line"/>
			<point x="165" y="655" type="line"/>
			<point x="165" y="760" type="line"/>
			<point x="193" y="760" type="line"/>
			<point x="193" y="655" type="line"/>
			<point x="221" y="655" type="line"/>
			<point x="221" y="760" type="line"/>
		</contour>
	</outline>
</glyph>
<glyph name="k" format="2">
	<advance width="472"/>
	<unicode hex="006B"/>
	<outline>
		<contour>
			<point x="77" y="760" type="move"/>
			<point x="77" y="0" type="line"/>
			<point x="105" y="0" type="line"/>
			<point x="105" y="760" type="line"/>
			<point x="133" y="760" type="line"/>
			<point x="133" y="0" type="line"/>
			<point x="161" y="0" type="line"/>
			<point x="161" y="266" type="line"/>
			<point x="395" y="514" type="line"/>
			<point x="416" y="492" type="line"/>
			<point x="338" y="405" type="line"/>
		</contour>
		<contour>
			<point x="405" y="-15" type="move"/>
			<point x="209" y="263" type="line"/>
			<point x="233" y="287" type="line"/>
			<point x="433" y="1" type="line"/>
			<point x="457" y="21" type="line"/>
			<point x="257" y="306" type="line"/>
			<point x="279" y="326" type="line"/>
			<point x="344" y="236" type="line"/>
		</contour>
	</outline>
</glyph>
<glyph name="l" format="2">
	<advance width="240"/>
	<unicode hex="006C"/>
	<outline>
		<contour>
			<point x="78" y="760" type="move"/>
			<point x="78" y="0" type="line"/>
			<point x="106" y="0" type="line"/>
			<point x="106" y="760" type="line"/>
			<point x="134" y="760" type="line"/>
			<point x="134" y="0" type="line"/>
			<point x="162" y="0" type="line"/>
			<point x="162" y="760" type="line"/>
		</contour>
	</outline>
</glyph>
<glyph name="m" format="2">
	<advance width="971"/>
	<unicode hex="006D"/>
	<outline>
		<contour>
			<point x="75" y="500" type="move"/>
			<point x="75" y="0" type="line"/>
			<point x="103" y="0" type="line"/>
			<point x="103" y="500" type="line"/>
			<point x="131" y="500" type="line"/>
			<point x="131" y="0" type="line"/>
			<point x="159" y="0" type="line"/>
			<point x="159" y="432" type="line"/>
			<point x="193" y="471"/>
			<point x="243" y="520"/>
			<point x="325" y="518" type="curve"/>
			<point x="408" y="520"/>
			<point x="447" y="462"/>
			<point x="447" y="373" type="curve" smooth="yes"/>
			<point x="447" y="0" type="line"/>
			<point x="475" y="0" type="line"/>
			<point x="475" y="146"/>
			<point x="475" y="425"/>
			<point x="475" y="442" type="curve"/>
			<point x="503" y="442" type="line"/>
			<point x="503" y="1" type="line"/>
			<point x="531" y="1" type="line"/>
			<point x="531" y="432" type="line"/>
			<point x="565" y="471"/>
			<point x="615" y="520"/>
			<point x="697" y="518" type="curve"/>
			<point x="780" y="520"/>
			<point x="819" y="462"/>
			<point x="819" y="373" type="curve" smooth="yes"/>
			<point x="819" y="0" type="line"/>
			<point x="847" y="0" type="line"/>
			<point x="847" y="146"/>
			<point x="847" y="425"/>
			<point x="847" y="442" type="curve"/>
			<point x="875" y="442" type="line"/>
			<point x="875" y="1" type="line"/>
			<point x="903" y="1" type="line"/>
			<point x="903" y="445" type="line"/>
		</contour>
	</outline>
</glyph>
<glyph name="o" format="2">
	<advance width="536"/>
	<unicode hex="006F"/>
	<outline>
		<contour>
			<point x="488" y="108" type="move"/>
			<point x="488" y="389" type="line"/>
			<point x="460" y="389" type="line"/>
			<point x="460" y="111" type="line"/>
			<point x="432" y="111" type="line"/>
			<point x="432" y="390" type="line"/>
			<point x="404" y="390" type="line"/>
		</contour>
		<contour>
			<point x="48" y="394" type="move"/>
			<point x="48" y="113" type="line"/>
			<point x="76" y="113" type="line"/>
			<point x="76" y="391" type="line"/>
			<point x="104" y="391" type="line"/>
			<point x="104" y="112" type="line"/>
			<point x="132" y="112" type="line"/>
		</contour>
		<contour>
			<point x="404" y="126" type="move"/>
			<point x="404" y="37"/>
			<point x="365" y="-14"/>
			<point x="268" y="-12" type="curve" smooth="yes"/>
			<point x="171" y="-14"/>
			<point x="132" y="45"/>
			<point x="132" y="133" type="curve" smooth="yes"/>
			<point x="132" y="187" type="line"/>
			<point x="132" y="367" type="line" smooth="yes"/>
			<point x="132" y="456"/>
			<point x="171" y="514"/>
			<point x="268" y="512" type="curve" smooth="yes"/>
			<point x="365" y="514"/>
			<point x="404" y="456"/>
			<point x="404" y="367" type="curve" smooth="yes"/>
			<point x="404" y="127" type="line"/>
		</contour>
	</outline>
</glyph>
<glyph name="p" format="2">
	<advance width="544"/>
	<unicode hex="0070"/>
	<outline>
		<contour>
			<point x="66" y="-200" type="move"/>
			<point x="66" y="389" type="line"/>
			<point x="94" y="389" type="line"/>
			<point x="94" y="-200" type="line"/>
			<point x="122" y="-200" type="line"/>
			<point x="122" y="390" type="line"/>
			<point x="150" y="390" type="line"/>
		</contour>
		<contour>
			<point x="506" y="394" type="move"/>
			<point x="506" y="113" type="line"/>
			<point x="478" y="113" type="line"/>
			<point x="478" y="391" type="line"/>
			<point x="450" y="391" type="line"/>
			<point x="450" y="112" type="line"/>
			<point x="422" y="112" type="line"/>
		</contour>
		<contour>
			<point x="149" y="367" type="move"/>
			<point x="149" y="456"/>
			<point x="188" y="514"/>
			<point x="285" y="512" type="curve" smooth="yes"/>
			<point x="382" y="514"/>
			<point x="421" y="456"/>
			<point x="421" y="367" type="curve" smooth="yes"/>
			<point x="421" y="133" type="line" smooth="yes"/>
			<point x="421" y="44"/>
			<point x="382" y="-14"/>
			<point x="285" y="-12" type="curve" smooth="yes"/>
			<point x="188" y="-14"/>
			<point x="149" y="44"/>
			<point x="149" y="133" type="curve" smooth="yes"/>
			<point x="149" y="366" type="line"/>
		</contour>
	</outline>
</glyph>
<glyph name="q" format="2">
	<advance width="544"/>
	<unicode hex="0071"/>
	<outline>
		<contour>
			<point x="478" y="-200" type="move"/>
			<point x="478" y="389" type="line"/>
			<point x="450" y="389" type="line"/>
			<point x="450" y="-200" type="line"/>
			<point x="422" y="-200" type="line"/>
			<point x="422" y="390" type="line"/>
			<point x="394" y="390" type="line"/>
		</contour>
		<contour>
			<point x="38" y="394" type="move"/>
			<point x="38" y="113" type="line"/>
			<point x="66" y="113" type="line"/>
			<point x="66" y="391" type="line"/>
			<point x="94" y="391" type="line"/>
			<point x="94" y="112" type="line"/>
			<point x="122" y="112" type="line"/>
		</contour>
		<contour>
			<point x="121" y="367" type="move"/>
			<point x="121" y="456"/>
			<point x="160" y="514"/>
			<point x="257" y="512" type="curve" smooth="yes"/>
			<point x="354" y="514"/>
			<point x="393" y="456"/>
			<point x="393" y="367" type="curve" smooth="yes"/>
			<point x="393" y="133" type="line" smooth="yes"/>
			<point x="393" y="44"/>
			<point x="354" y="-14"/>
			<point x="257" y="-12" type="curve" smooth="yes"/>
			<point x="160" y="-14"/>
			<point x="121" y="44"/>
			<point x="121" y="133" type="curve" smooth="yes"/>
			<point x="121" y="366" type="line"/>
		</contour>
	</outline>
</glyph>
<glyph name="r" format="2">
	<advance width="427"/>
	<unicode hex="0072"/>
	<anchor x="319" y="518" name="top"/>
	<anchor x="298" y="0" name="bottom"/>
	<outline>
		<contour>
			<point x="75" y="500" type="move"/>
			<point x="75" y="0" type="line"/>
			<point x="103" y="0" type="line"/>
			<point x="103" y="500" type="line"/>
			<point x="131" y="500" type="line"/>
			<point x="131" y="0" type="line"/>
			<point x="159" y="0" type="line"/>
			<point x="159" y="432" type="line"/>
			<point x="193" y="471"/>
			<point x="243" y="520"/>
			<point x="325" y="518" type="curve"/>
			<point x="363" y="519"/>
			<point x="392" y="507"/>
			<point x="412" y="486" type="curve"/>
		</contour>
		<contour>
			<point x="412" y="486" type="move"/>
		</contour>
	</outline>
</glyph>
<glyph name="s" format="2">
	<advance width="484"/>
	<unicode hex="0073"/>
	<outline>
		<contour>
			<point x="109" y="339" type="move"/>
			<point x="378" y="222" type="line"/>
			<point x="367" y="197" type="line"/>
			<point x="94" y="316" type="line"/>
			<point x="85" y="292" type="line"/>
			<point x="345" y="177" type="line"/>
			<point x="390" y="157"/>
			<point x="406" y="125"/>
			<point x="406" y="85" type="curve"/>
			<point x="406" y="12"/>
			<point x="346" y="-18"/>
			<point x="267" y="-18" type="curve"/>
			<point x="129" y="-18"/>
			<point x="111" y="55"/>
			<point x="111" y="137" type="curve"/>
			<point x="111" y="147" type="line"/>
			<point x="83" y="147" type="line"/>
			<point x="83" y="70"/>
			<point x="83" y="60"/>
			<point x="83" y="43" type="curve"/>
			<point x="55" y="43" type="line"/>
			<point x="55" y="146" type="line"/>
			<point x="27" y="146" type="line"/>
			<point x="27" y="40" type="line"/>
		</contour>
		<contour>
			<point x="345" y="270" type="move"/>
			<point x="129" y="362"/>
			<point x="103" y="386"/>
			<point x="103" y="435" type="curve"/>
			<point x="103" y="485"/>
			<point x="146" y="518"/>
			<point x="223" y="518" type="curve"/>
			<point x="328" y="518"/>
			<point x="371" y="467"/>
			<point x="371" y="396" type="curve"/>
			<point x="371" y="364" type="line"/>
			<point x="399" y="364" type="line"/>
			<point x="399" y="453" type="line"/>
			<point x="427" y="453" type="line"/>
			<point x="427" y="364" type="line"/>
			<point x="455" y="364" type="line"/>
			<point x="455" y="453" type="line"/>
		</contour>
	</outline>
</glyph>
<glyph name="t" format="2">
	<advance width="481"/>
	<unicode hex="0074"/>
	<outline>
		<contour>
			<point x="458" y="59" type="move"/>
			<point x="458" y="163" type="line"/>
			<point x="430" y="163" type="line"/>
			<point x="430" y="62" type="line"/>
			<point x="402" y="62" type="line"/>
			<point x="402" y="79"/>
			<point x="402" y="108"/>
			<point x="402" y="164" type="curve"/>
			<point x="374" y="164" type="line"/>
			<point x="374" y="131" type="line" smooth="yes"/>
			<point x="374" y="42"/>
			<point x="345" y="-18"/>
			<point x="263" y="-18" type="curve" smooth="yes"/>
			<point x="201" y="-18"/>
			<point x="168" y="26"/>
			<point x="155" y="63" type="curve"/>
			<point x="155" y="672" type="line"/>
			<point x="127" y="672" type="line"/>
			<point x="127" y="62" type="line"/>
			<point x="99" y="62" type="line"/>
			<point x="99" y="672" type="line"/>
			<point x="71" y="672" type="line"/>
			<point x="71" y="62" type="line"/>
		</contour>
		<contour>
			<point x="334" y="482" type="move"/>
			<point x="156" y="482" type="line"/>
		</contour>
	</outline>
</glyph>
<glyph name="v" format="2">
	<advance width="506"/>
	<unicode hex="0076"/>
	<outline>
		<contour>
			<point x="175" y="73" type="move"/>
			<point x="22" y="478" type="line"/>
			<point x="47" y="489" type="line"/>
			<point x="242" y="-22" type="line"/>
			<point x="267" y="-11" type="line"/>
			<point x="72" y="499" type="line"/>
			<point x="97" y="510" type="line"/>
			<point x="292" y="0" type="line"/>
			<point x="459" y="509" type="line"/>
			<point x="485" y="500" type="line"/>
			<point x="457" y="407" type="line"/>
		</contour>
	</outline>
</glyph>
<glyph name="w" format="2">
	<advance width="809"/>
	<unicode hex="0077"/>
	<outline>
		<contour>
			<point x="154" y="73" type="move"/>
			<point x="25" y="476" type="line"/>
			<point x="51" y="486" type="line"/>
			<point x="211" y="-17" type="line"/>
			<point x="236" y="-8" type="line"/>
			<point x="75" y="497" type="line"/>
			<point x="101" y="507" type="line"/>
			<point x="261" y="5" type="line"/>
			<point x="389" y="398" type="line"/>
		</contour>
		<contour>
			<point x="493" y="73" type="move"/>
			<point x="365" y="475" type="line"/>
			<point x="390" y="486" type="line"/>
			<point x="550" y="-16" type="line"/>
			<point x="576" y="-7" type="line"/>
			<point x="415" y="496" type="line"/>
			<point x="440" y="507" type="line"/>
			<point x="601" y="5" type="line"/>
			<point x="762" y="505" type="line"/>
			<point x="788" y="496" type="line"/>
			<point x="762" y="410" type="line"/>
		</contour>
	</outline>
</glyph>
<glyph name="y" format="2">
	<advance width="501"/>
	<unicode hex="0079"/>
	<outline>
		<contour>
			<point x="187" y="50" type="move"/>
			<point x="18" y="478" type="line"/>
			<point x="43" y="489" type="line"/>
			<point x="213" y="62" type="line"/>
			<point x="238" y="73" type="line"/>
			<point x="68" y="499" type="line"/>
			<point x="93" y="510" type="line"/>
			<point x="279" y="41" type="line"/>
		</contour>
		<contour>
			<point x="139" y="-99" type="move"/>
			<point x="104" y="-186" type="line"/>
			<point x="130" y="-196" type="line"/>
			<point x="165" y="-111" type="line"/>
			<point x="190" y="-122" type="line"/>
			<point x="184" y="-138"/>
			<point x="176" y="-153"/>
			<point x="157" y="-206" type="curve"/>
			<point x="183" y="-217" type="line"/>
			<point x="458" y="509" type="line"/>
			<point x="484" y="500" type="line"/>
			<point x="456" y="407" type="line"/>
		</contour>
	</outline>
</glyph>
<glyph name="z" format="2">
	<advance width="475"/>
	<unicode hex="007A"/>
	<outline>
		<contour>
			<point x="62" y="500" type="move"/>
			<point x="62" y="423" type="line"/>
			<point x="90" y="423" type="line"/>
			<point x="90" y="500" type="line"/>
			<point x="118" y="500" type="line"/>
			<point x="118" y="423" type="line"/>
			<point x="146" y="423" type="line"/>
			<point x="146" y="500" type="line"/>
			<point x="382" y="500" type="line"/>
			<point x="23" y="39" type="line"/>
			<point x="48" y="20" type="line"/>
			<point x="408" y="483" type="line"/>
			<point x="432" y="465" type="line"/>
			<point x="75" y="5" type="line"/>
			<point x="99" y="-14" type="line"/>
			<point x="160" y="64" type="line"/>
			<point x="359" y="0" type="line"/>
			<point x="359" y="81" type="line"/>
			<point x="387" y="81" type="line"/>
			<point x="387" y="0" type="line"/>
			<point x="415" y="0" type="line"/>
			<point x="415" y="81" type="line"/>
			<point x="443" y="81" type="line"/>
			<point x="443" y="0" type="line"/>
		</contour>
	</outline>
</glyph>
<glyph name="tildecomb" format="2">
	<advance width="432"/>
	<unicode hex="0303"/>
	<anchor x="216" y="683" name="top"/>
	<anchor x="216" y="500" name="_top"/>
	<outline>
		<contour>
			<point x="47" y="611" type="move"/>
			<point x="76" y="624"/>
			<point x="104" y="631"/>
			<point x="131" y="631" type="curve" smooth="yes"/>
			<point x="160" y="631"/>
			<point x="188" y="620"/>
			<point x="216" y="597" type="curve" smooth="yes"/>
			<point x="244" y="574"/>
			<point x="272" y="563"/>
			<point x="301" y="563" type="curve" smooth="yes"/>
			<point x="328" y="563"/>
			<point x="356" y="570"/>
			<point x="385" y="583" type="curve"/>
			<point x="385" y="611" type="line"/>
			<point x="356" y="598"/>
			<point x="328" y="591"/>
			<point x="301" y="591" type="curve" smooth="yes"/>
			<point x="272" y="591"/>
			<point x="244" y="602"/>
			<point x="216" y="625" type="curve" smooth="yes"/>
			<point x="188" y="648"/>
			<point x="160" y="659"/>
			<point x="131" y="659" type="curve" smooth="yes"/>
			<point x="104" y="659"/>
			<point x="76" y="652"/>
			<point x="47" y="639" type="curve"/>
			<point x="47" y="663" type="line"/>
			<point x="76" y="676"/>
			<point x="104" y="683"/>
			<point x="131" y="683" type="curve" smooth="yes"/>
			<point x="160" y="683"/>
			<point x="188" y="672"/>
			<point x="216" y="649" type="curve" smooth="yes"/>
			<point x="244" y="626"/>
			<point x="272" y="615"/>
			<point x="301" y="615" type="curve" smooth="yes"/>
			<point x="328" y="615"/>
			<point x="356" y="622"/>
			<point x="385" y="635" type="curve"/>
		</contour>
	</outline>
</glyph>
<glyph name="cedillacomb" format="2">
	<advance width="227"/>
	<unicode hex="0327"/>
	<anchor x="59" y="0" name="_bottom"/>
	<anchor x="59" y="-268" name="bottom"/>
	<outline>
		<contour>
			<point x="59" y="-18" type="move"/>
			<point x="59" y="-102" type="line"/>
			<point x="105" y="-102"/>
			<point x="127" y="-116"/>
			<point x="127" y="-157" type="curve" smooth="yes"/>
			<point x="127" y="-198"/>
			<point x="110" y="-212"/>
			<point x="59" y="-212" type="curve"/>
			<point x="59" y="-238" type="line"/>
			<point x="120" y="-238"/>
			<point x="155" y="-210"/>
			<point x="155" y="-157" type="curve" smooth="yes"/>
			<point x="155" y="-110"/>
			<point x="127" y="-77"/>
			<point x="79" y="-77" type="curve"/>
			<point x="79" y="-47" type="line"/>
			<point x="141" y="-47"/>
			<point x="187" y="-99"/>
			<point x="187" y="-157" type="curve" smooth="yes"/>
			<point x="187" y="-222"/>
			<point x="130" y="-268"/>
			<point x="59" y="-268" type="curve"/>
		</contour>
	</outline>
</glyph>
<glyph name="c_h" format="2">
	<advance width="1060"/>
	<anchor x="175" y="518" name="top_1"/>
	<anchor x="151" y="-18" name="bottom_1"/>
	<outline>
		<contour>
			<point x="42" y="440" type="move"/>
			<point x="42" y="84" type="line"/>
			<point x="70" y="84" type="line"/>
			<point x="70" y="440" type="line"/>
			<point x="98" y="440" type="line"/>
			<point x="98" y="147" type="line" smooth="yes"/>
			<point x="98" y="50"/>
			<point x="149" y="-18"/>
			<point x="244" y="-18" type="curve" smooth="yes"/>
			<point x="348" y="-18"/>
			<point x="386" y="45"/>
			<point x="386" y="127" type="curve" smooth="yes"/>
			<point x="386" y="137" type="line"/>
			<point x="414" y="137" type="line"/>
			<point x="414" y="60"/>
			<point x="414" y="60"/>
			<point x="414" y="43" type="curve"/>
			<point x="442" y="43" type="line"/>
			<point x="442" y="136" type="line"/>
			<point x="470" y="136" type="line"/>
			<point x="470" y="40" type="line"/>
		</contour>
		<contour>
			<point x="126" y="137" type="move"/>
			<point x="126" y="196"/>
			<point x="126" y="306"/>
			<point x="126" y="353" type="curve" smooth="yes"/>
			<point x="126" y="478"/>
			<point x="198" y="518"/>
			<point x="268" y="518" type="curve" smooth="yes"/>
			<point x="332" y="518"/>
			<point x="386" y="484"/>
			<point x="386" y="376" type="curve" smooth="yes"/>
			<point x="386" y="344" type="line"/>
			<point x="414" y="344" type="line"/>
			<point x="414" y="443" type="line"/>
			<point x="442" y="443" type="line"/>
			<point x="442" y="344" type="line"/>
			<point x="470" y="344" type="line"/>
			<point x="470" y="443" type="line"/>
			<point x="470" y="760" type="line"/>
			<point x="498" y="760" type="line"/>
			<point x="498" y="344" type="line"/>
			<point x="526" y="344" type="line"/>
			<point x="526" y="760" type="line"/>
			<point x="554" y="760" type="line"/>
			<point x="554" y="0" type="line"/>
			<point x="582" y="0" type="line"/>
			<point x="582" y="760" type="line"/>
			<point x="610" y="760" type="line"/>
			<point x="610" y="0" type="line"/>
			<point x="638" y="0" type="line"/>
			<point x="638" y="432" type="line"/>
			<point x="672" y="471"/>
			<point x="722" y="520"/>
			<point x="804" y="518" type="curve"/>
			<point x="887" y="520"/>
			<point x="926" y="462"/>
			<point x="926" y="373" type="curve" smooth="yes"/>
			<point x="926" y="0" type="line"/>
			<point x="954" y="0" type="line"/>
			<point x="954" y="146"/>
			<point x="954" y="425"/>
			<point x="954" y="442" type="curve"/>
			<point x="982" y="442" type="line"/>
			<point x="982" y="1" type="line"/>
			<point x="1010" y="1" type="line"/>
			<point x="1010" y="445" type="line"/>
		</contour>
	</outline>
</glyph>
